<svg xmlns="http://www.w3.org/2000/svg" xmlns:xlink="http://www.w3.org/1999/xlink" xmlns:lucid="lucid" width="1760" height="1360"><g transform="translate(0 0)" lucid:page-tab-id="uc_zy0ZY-AYa"><path d="M0 0h1760v1360H0z" fill="#fff"/><path d="M960 125c0-2.76 2.24-5 5-5h290c2.76 0 5 2.24 5 5v222c0 2.76-2.24 5-5 5H965c-2.76 0-5-2.24-5-5z" fill="#fff"/><path d="M960 120h300v40H960z" fill="#ccc"/><path d="M960 125c0-2.76 2.24-5 5-5h290c2.76 0 5 2.24 5 5v222c0 2.76-2.24 5-5 5H965c-2.76 0-5-2.24-5-5zM960 160h300M1110 160v192" stroke="#333" fill="none"/><use xlink:href="#a" transform="matrix(1,0,0,1,970,120) translate(118.025 23.6)"/><use xlink:href="#b" transform="matrix(1,0,0,1,965,162.5) translate(0 17.1)"/><use xlink:href="#c" transform="matrix(1,0,0,1,1115,162.5) translate(0 17.1)"/><use xlink:href="#d" transform="matrix(1,0,0,1,965,194.5) translate(0 17.1)"/><use xlink:href="#c" transform="matrix(1,0,0,1,1115,194.5) translate(0 17.1)"/><use xlink:href="#e" transform="matrix(1,0,0,1,965,226.5) translate(0 17.1)"/><use xlink:href="#f" transform="matrix(1,0,0,1,1115,226.5) translate(0 17.1)"/><use xlink:href="#g" transform="matrix(1,0,0,1,965,258.5) translate(0 17.1)"/><use xlink:href="#h" transform="matrix(1,0,0,1,1115,258.5) translate(0 17.1)"/><use xlink:href="#i" transform="matrix(1,0,0,1,965,290.5) translate(0 17.1)"/><use xlink:href="#j" transform="matrix(1,0,0,1,1115,290.5) translate(0 17.1)"/><use xlink:href="#k" transform="matrix(1,0,0,1,965,322.5) translate(0 17.1)"/><use xlink:href="#l" transform="matrix(1,0,0,1,1115,322.5) translate(0 17.1)"/><path d="M460 28c0-4.42 3.58-8 8-8h836.75c4.42 0 8 3.58 8 8v25.16c0 4.4-3.58 8-8 8H468c-4.42 0-8-3.6-8-8z" stroke="#000" stroke-opacity="0" stroke-width="2" fill="#fff" fill-opacity="0"/><use xlink:href="#m" transform="matrix(1,0,0,1,464,23.999999999999993) translate(248.59148148148148 25.782777777777778)"/><use xlink:href="#n" transform="matrix(1,0,0,1,464,23.999999999999993) translate(345.9779012345679 25.782777777777778)"/><use xlink:href="#o" transform="matrix(1,0,0,1,464,23.999999999999993) translate(482.551975308642 25.782777777777778)"/><path d="M548.82 59.8h681.06M548.85 59.8h-1.03M1229.86 59.8h1.02" stroke="#a9afb8" stroke-width="2" fill="none"/><path d="M460 69.16c0-4.42 3.58-8 8-8h837.7c4.43 0 8 3.58 8 8V72c0 4.42-3.57 8-8 8H468c-4.42 0-8-3.58-8-8z" stroke="#000" stroke-opacity="0" stroke-width="2" fill="#fff" fill-opacity="0"/><path d="M900 665c0-2.76 2.24-5 5-5h270c2.76 0 5 2.24 5 5v222c0 2.76-2.24 5-5 5H905c-2.76 0-5-2.24-5-5z" fill="#fff"/><path d="M900 660h280v40H900z" fill="#ccc"/><path d="M900 665c0-2.76 2.24-5 5-5h270c2.76 0 5 2.24 5 5v222c0 2.76-2.24 5-5 5H905c-2.76 0-5-2.24-5-5zM900 700h280M1040 700v192" stroke="#333" fill="none"/><use xlink:href="#p" transform="matrix(1,0,0,1,910,660) translate(0 23.6)"/><use xlink:href="#q" transform="matrix(1,0,0,1,905,702.5) translate(0 17.1)"/><use xlink:href="#r" transform="matrix(1,0,0,1,1045,702.5) translate(0 17.1)"/><use xlink:href="#s" transform="matrix(1,0,0,1,905,734.5) translate(0 17.1)"/><use xlink:href="#t" transform="matrix(1,0,0,1,1045,734.5) translate(0 17.1)"/><use xlink:href="#u" transform="matrix(1,0,0,1,905,766.5) translate(0 17.1)"/><use xlink:href="#t" transform="matrix(1,0,0,1,1045,766.5) translate(0 17.1)"/><use xlink:href="#v" transform="matrix(1,0,0,1,905,798.5) translate(0 17.1)"/><use xlink:href="#t" transform="matrix(1,0,0,1,1045,798.5) translate(0 17.1)"/><use xlink:href="#w" transform="matrix(1,0,0,1,905,830.5) translate(0 17.1)"/><use xlink:href="#t" transform="matrix(1,0,0,1,1045,830.5) translate(0 17.1)"/><use xlink:href="#x" transform="matrix(1,0,0,1,905,862.5) translate(0 17.1)"/><use xlink:href="#c" transform="matrix(1,0,0,1,1045,862.5) translate(0 17.1)"/><path d="M540 133c0-2.76 2.24-5 5-5h290c2.76 0 5 2.24 5 5v158c0 2.76-2.24 5-5 5H545c-2.76 0-5-2.24-5-5z" fill="#fff"/><path d="M540 128h300v40H540z" fill="#ccc"/><path d="M540 133c0-2.76 2.24-5 5-5h290c2.76 0 5 2.24 5 5v158c0 2.76-2.24 5-5 5H545c-2.76 0-5-2.24-5-5zM540 168h300M690 168v128" stroke="#333" fill="none"/><use xlink:href="#y" transform="matrix(1,0,0,1,550,128.00000000018207) translate(119.325 23.6)"/><use xlink:href="#b" transform="matrix(1,0,0,1,545,170.50000000018207) translate(0 17.1)"/><use xlink:href="#c" transform="matrix(1,0,0,1,695,170.50000000018207) translate(0 17.1)"/><use xlink:href="#z" transform="matrix(1,0,0,1,545,202.50000000018207) translate(0 17.1)"/><use xlink:href="#A" transform="matrix(1,0,0,1,695,202.50000000018207) translate(0 17.1)"/><use xlink:href="#B" transform="matrix(1,0,0,1,695,202.50000000018207) translate(5 17.1)"/><use xlink:href="#C" transform="matrix(1,0,0,1,545,234.50000000018207) translate(0 17.1)"/><use xlink:href="#h" transform="matrix(1,0,0,1,695,234.50000000018207) translate(0 17.1)"/><use xlink:href="#x" transform="matrix(1,0,0,1,545,266.50000000018207) translate(0 17.1)"/><use xlink:href="#c" transform="matrix(1,0,0,1,695,266.50000000018207) translate(0 17.1)"/><path d="M900 409c0-2.76 2.24-5 5-5h270c2.76 0 5 2.24 5 5v190c0 2.76-2.24 5-5 5H905c-2.76 0-5-2.24-5-5z" fill="#fff"/><path d="M900 404h280v40H900z" fill="#ccc"/><path d="M900 409c0-2.76 2.24-5 5-5h270c2.76 0 5 2.24 5 5v190c0 2.76-2.24 5-5 5H905c-2.76 0-5-2.24-5-5zM900 444h280M1040 444v160" stroke="#333" fill="none"/><use xlink:href="#D" transform="matrix(1,0,0,1,910,404) translate(0 23.6)"/><use xlink:href="#E" transform="matrix(1,0,0,1,905,446.5) translate(0 17.1)"/><use xlink:href="#h" transform="matrix(1,0,0,1,1045,446.5) translate(0 17.1)"/><use xlink:href="#F" transform="matrix(1,0,0,1,905,478.5) translate(0 17.1)"/><use xlink:href="#t" transform="matrix(1,0,0,1,1045,478.5) translate(0 17.1)"/><use xlink:href="#G" transform="matrix(1,0,0,1,905,510.5) translate(0 17.1)"/><use xlink:href="#t" transform="matrix(1,0,0,1,1045,510.5) translate(0 17.1)"/><use xlink:href="#H" transform="matrix(1,0,0,1,905,542.5) translate(0 17.1)"/><use xlink:href="#t" transform="matrix(1,0,0,1,1045,542.5) translate(0 17.1)"/><use xlink:href="#I" transform="matrix(1,0,0,1,905,574.5) translate(0 17.1)"/><use xlink:href="#f" transform="matrix(1,0,0,1,1045,574.5) translate(0 17.1)"/><path d="M520 425c0-2.76 2.24-5 5-5h290c2.76 0 5 2.24 5 5v158c0 2.76-2.24 5-5 5H525c-2.76 0-5-2.24-5-5z" fill="#fff"/><path d="M520 420h300v40H520z" fill="#ccc"/><path d="M520 425c0-2.76 2.24-5 5-5h290c2.76 0 5 2.24 5 5v158c0 2.76-2.24 5-5 5H525c-2.76 0-5-2.24-5-5zM520 460h300M670 460v128" stroke="#333" fill="none"/><use xlink:href="#J" transform="matrix(1,0,0,1,530,420) translate(105.05 23.6)"/><use xlink:href="#b" transform="matrix(1,0,0,1,525,462.5) translate(0 17.1)"/><use xlink:href="#c" transform="matrix(1,0,0,1,675,462.5) translate(0 17.1)"/><use xlink:href="#w" transform="matrix(1,0,0,1,525,494.5) translate(0 17.1)"/><use xlink:href="#t" transform="matrix(1,0,0,1,675,494.5) translate(0 17.1)"/><use xlink:href="#K" transform="matrix(1,0,0,1,525,526.5) translate(0 17.1)"/><use xlink:href="#L" transform="matrix(1,0,0,1,675,526.5) translate(0 17.1)"/><use xlink:href="#M" transform="matrix(1,0,0,1,525,558.5) translate(0 17.1)"/><use xlink:href="#L" transform="matrix(1,0,0,1,675,558.5) translate(0 17.1)"/><path d="M499.5 475.9h-14c-3.3 0-6-2.68-6-6V222c0-3.3 2.7-6 6-6h34" stroke="#5e5e5e" stroke-width="2" fill="none"/><path d="M499.5 465.9v20M519.5 475.9h-20M519.5 206v20M539.5 216h-20" stroke="#5e5e5e" stroke-width="2" fill="#fff"/><path d="M939.5 176H906c-3.3 0-6 2.7-6 6v60c0 3.3-2.7 6-6 6h-33.5" stroke="#5e5e5e" stroke-width="2" fill="none"/><path d="M939.5 166v20M959.5 176h-20M860.5 258v-20M840.5 248h20" stroke="#5e5e5e" stroke-width="2" fill="#fff"/><path d="M879.5 459.84H876c-3.3 0-6-2.68-6-6v-167.6c0-3.33-2.7-6-6-6h-3.5" stroke="#5e5e5e" stroke-width="2" fill="none"/><path d="M879.5 449.84v20M899.5 459.84h-20M840.95 270.23l20 10-20 10M840.95 280.23h20M860.95 290.23v-20" stroke="#5e5e5e" stroke-width="2" fill="#fff"/><path d="M1280.5 272h14c3.3 0 6 2.7 6 6v175.84c0 3.32-2.7 6-6 6h-94" stroke="#5e5e5e" stroke-width="2" fill="none"/><path d="M1260.95 262l20 10-20 10M1260.95 272h20M1280.95 282v-20M1200.5 469.84v-20M1180.5 459.84h20" stroke="#5e5e5e" stroke-width="2" fill="#fff"/><path d="M1200.5 876.48h14c3.3 0 6-2.68 6-6V477.36c0-3.32-2.7-6-6-6h-14" stroke="#5e5e5e" stroke-width="2" fill="none"/><path d="M1180.95 866.48l20 10-20 10M1180.95 876.48h20M1200.95 886.48v-20M1200.5 481.36v-20M1180.5 471.36h20" stroke="#5e5e5e" stroke-width="2" fill="#fff"/><defs><path fill="#333" d="M222 0l43-216c-8 16-17 34-26 49L143 0h-22L81-216 41 0H11l48-248h42l38 208 116-208h45L252 0h-30" id="N"/><path fill="#333" d="M111-194c62-3 86 47 72 106H45c-7 38 6 69 45 68 27-1 43-14 53-32l24 11C152-15 129 4 87 4 38 3 12-23 12-71c0-70 32-119 99-123zm44 81c14-66-71-72-95-28-4 8-8 17-11 28h106" id="O"/><path fill="#333" d="M55-144c13 50 104 24 104 88C159 21 15 23 1-39l26-10c6 40 102 42 102-4-13-50-104-23-104-87 0-71 143-71 148-8l-29 4c-5-35-85-37-89 0" id="P"/><path fill="#333" d="M165-48c-4 18 1 34 23 27l-3 20c-29 8-62 0-52-35h-2C116-14 99 4 63 4 30 4 8-16 8-49c0-68 71-67 138-67 10-26 0-56-31-54-26 1-42 9-47 31l-32-5c8-67 160-71 144 15-5 28-9 54-15 81zM42-50c3 52 80 24 89-6 7-12 7-24 11-38-47 1-103-4-100 44" id="Q"/><g id="a"><use transform="matrix(0.05,0,0,0.05,0,0)" xlink:href="#N"/><use transform="matrix(0.05,0,0,0.05,14.950000000000001,0)" xlink:href="#O"/><use transform="matrix(0.05,0,0,0.05,24.950000000000003,0)" xlink:href="#P"/><use transform="matrix(0.05,0,0,0.05,33.95,0)" xlink:href="#Q"/></g><path fill="#333" d="M14 0l48-248h34L48 0H14" id="R"/><path fill="#333" d="M248-139C247-14 144 9 11 0l48-248c105-6 190 8 189 109zm-34 0c1-70-52-87-126-82L50-27c98 7 163-21 164-112" id="S"/><g id="b"><use transform="matrix(0.05,0,0,0.05,0,0)" xlink:href="#R"/><use transform="matrix(0.05,0,0,0.05,5,0)" xlink:href="#S"/></g><path fill="#333" d="M173 0L80-213 41 0H11l48-248h37l94 214 40-214h30L212 0h-39" id="T"/><path fill="#333" d="M151-220L108 0H75l42-220H32l6-28h203l-5 28h-85" id="U"/><path fill="#333" d="M11 0l48-248h184l-5 28H87l-15 79h140l-5 27H67L50-27h158l-5 27H11" id="V"/><path fill="#333" d="M52-101C46-14 166-7 216-51l9-45h-74l6-28h105l-18 87C217-12 181 4 130 4 60 4 18-31 18-101c0-106 78-167 188-146 30 6 48 27 59 54l-34 9c-10-26-31-41-67-40-75 1-107 50-112 123" id="W"/><path fill="#333" d="M249-183c0 48-29 72-75 77L221 0h-36l-43-103H65L45 0H11l48-248c83 2 190-17 190 65zm-34 3c0-55-74-39-127-41l-18 92c63-1 145 13 145-51" id="X"/><g id="c"><use transform="matrix(0.05,0,0,0.05,0,0)" xlink:href="#R"/><use transform="matrix(0.05,0,0,0.05,5,0)" xlink:href="#T"/><use transform="matrix(0.05,0,0,0.05,17.950000000000003,0)" xlink:href="#U"/><use transform="matrix(0.05,0,0,0.05,28.900000000000006,0)" xlink:href="#V"/><use transform="matrix(0.05,0,0,0.05,40.900000000000006,0)" xlink:href="#W"/><use transform="matrix(0.05,0,0,0.05,54.900000000000006,0)" xlink:href="#V"/><use transform="matrix(0.05,0,0,0.05,66.9,0)" xlink:href="#X"/></g><path fill="#333" d="M133-28C103 26-5 8 13-77c13-62 24-115 90-117 29-1 46 15 56 35 2-12 6-24 8-34h31L144 75h-31zM45-64c-2 27 10 43 35 43 54-1 69-50 69-103 0-29-15-46-42-46-53-1-58 58-62 106" id="Y"/><path fill="#333" d="M67 3c-93-2-31-127-26-193h32L48-50c-3 39 53 32 70 12 30-34 30-101 43-152h32L157 0h-30c1-10 6-24 4-33-14 20-29 37-64 36" id="Z"/><path fill="#333" d="M67-158c22-48 132-52 116 29L158 0h-32l25-140c3-38-53-32-70-12C52-117 51-52 38 0H6l36-190h30" id="aa"/><path fill="#333" d="M51-54c-9 22 5 41 31 30L79-1C43 14 10-4 19-52l22-115H19l5-23h22l19-43h21l-9 43h35l-4 23H73" id="ab"/><path fill="#333" d="M50-231l6-30h32l-6 30H50zM6 0l37-190h31L37 0H6" id="ac"/><path fill="#333" d="M133-28C103 26-5 8 13-77c13-62 24-115 90-117 29-1 46 15 56 35l19-102h32L160 0h-30zM45-64c-2 27 10 43 35 43 54-1 69-50 69-103 0-29-15-46-42-46-53-1-58 58-62 106" id="ad"/><g id="d"><use transform="matrix(0.05,0,0,0.05,0,0)" xlink:href="#Y"/><use transform="matrix(0.05,0,0,0.05,10,0)" xlink:href="#Z"/><use transform="matrix(0.05,0,0,0.05,20,0)" xlink:href="#Q"/><use transform="matrix(0.05,0,0,0.05,30,0)" xlink:href="#aa"/><use transform="matrix(0.05,0,0,0.05,40,0)" xlink:href="#ab"/><use transform="matrix(0.05,0,0,0.05,45,0)" xlink:href="#ac"/><use transform="matrix(0.05,0,0,0.05,48.95,0)" xlink:href="#ad"/><use transform="matrix(0.05,0,0,0.05,58.95,0)" xlink:href="#Q"/><use transform="matrix(0.05,0,0,0.05,68.95,0)" xlink:href="#ad"/><use transform="matrix(0.05,0,0,0.05,78.95,0)" xlink:href="#O"/></g><path fill="#333" d="M30-147c31-64 166-65 159 27C183-49 158 1 86 4 9 8 1-88 30-147zM88-20c53 0 68-48 68-100 0-31-11-51-44-50-52 1-68 46-68 97 0 32 13 53 44 53" id="ae"/><path fill="#333" d="M44-68c0 29 11 47 38 47 30 0 42-19 51-41l28 9C148-21 126 4 82 4 31 4 10-29 12-85c3-77 74-140 146-93 12 8 15 23 18 40l-31 5c-1-22-13-36-36-36-52 0-65 49-65 101" id="af"/><path fill="#333" d="M67-162c32-53 139-36 121 50C175-51 163 2 97 4 68 4 52-11 42-31 38 6 28 39 22 75H-9l50-265h29c-1 10 0 20-3 28zm89 36c0-26-10-43-35-43-54 0-67 50-69 103-1 29 14 45 42 46 53 0 62-58 62-106" id="ag"/><g id="e"><use transform="matrix(0.05,0,0,0.05,0,0)" xlink:href="#ae"/><use transform="matrix(0.05,0,0,0.05,10,0)" xlink:href="#af"/><use transform="matrix(0.05,0,0,0.05,19,0)" xlink:href="#Z"/><use transform="matrix(0.05,0,0,0.05,29,0)" xlink:href="#ag"/><use transform="matrix(0.05,0,0,0.05,39,0)" xlink:href="#Q"/><use transform="matrix(0.05,0,0,0.05,49,0)" xlink:href="#ad"/><use transform="matrix(0.05,0,0,0.05,59,0)" xlink:href="#Q"/></g><path fill="#333" d="M219-77C219 17 104-2 11 0l48-248c73 2 169-15 169 57 0 38-24 54-60 60 29 5 51 21 51 54zm-26-111c0-44-62-31-105-33l-16 79c55 0 121 9 121-46zm-7 110c-1-49-69-36-119-38L50-27c61-1 137 12 136-51" id="ah"/><path fill="#333" d="M20-101c0-91 52-143 145-150 126-9 127 168 53 223-23 17-55 32-93 32C57 4 20-33 20-101zm216-33c5-57-18-91-73-90-77 1-110 51-110 125 0 49 23 75 73 75 72-1 104-45 110-110" id="ai"/><path fill="#333" d="M11 0l48-248h34L50-27h125l-5 27H11" id="aj"/><path fill="#333" d="M187 0l-14-72H61L19 0h-37l149-248h38L221 0h-34zm-19-99l-22-123L76-99h92" id="ak"/><g id="f"><use transform="matrix(0.05,0,0,0.05,0,0)" xlink:href="#ah"/><use transform="matrix(0.05,0,0,0.05,12,0)" xlink:href="#ai"/><use transform="matrix(0.05,0,0,0.05,26,0)" xlink:href="#ai"/><use transform="matrix(0.05,0,0,0.05,40,0)" xlink:href="#aj"/><use transform="matrix(0.05,0,0,0.05,50,0)" xlink:href="#V"/><use transform="matrix(0.05,0,0,0.05,62,0)" xlink:href="#ak"/><use transform="matrix(0.05,0,0,0.05,74,0)" xlink:href="#T"/></g><path d="M100-194c63 0 86 42 84 106H49c0 40 14 67 53 68 26 1 43-12 49-29l28 8c-11 28-37 45-77 45C44 4 14-33 15-96c1-61 26-98 85-98zm52 81c6-60-76-77-97-28-3 7-6 17-6 28h103" id="al"/><path d="M210-169c-67 3-38 105-44 169h-31v-121c0-29-5-50-35-48C34-165 62-65 56 0H25l-1-190h30c1 10-1 24 2 32 10-44 99-50 107 0 11-21 27-35 58-36 85-2 47 119 55 194h-31v-121c0-29-5-49-35-48" id="am"/><path d="M115-194c55 1 70 41 70 98S169 2 115 4C84 4 66-9 55-30l1 105H24l-1-265h31l2 30c10-21 28-34 59-34zm-8 174c40 0 45-34 45-75s-6-73-45-74c-42 0-51 32-51 76 0 43 10 73 51 73" id="an"/><path d="M114-163C36-179 61-72 57 0H25l-1-190h30c1 12-1 29 2 39 6-27 23-49 58-41v29" id="ao"/><path d="M135-143c-3-34-86-38-87 0 15 53 115 12 119 90S17 21 10-45l28-5c4 36 97 45 98 0-10-56-113-15-118-90-4-57 82-63 122-42 12 7 21 19 24 35" id="ap"/><path d="M141-36C126-15 110 5 73 4 37 3 15-17 15-53c-1-64 63-63 125-63 3-35-9-54-41-54-24 1-41 7-42 31l-33-3c5-37 33-52 76-52 45 0 72 20 72 64v82c-1 20 7 32 28 27v20c-31 9-61-2-59-35zM48-53c0 20 12 33 32 33 41-3 63-29 60-74-43 2-92-5-92 41" id="aq"/><g id="g"><use transform="matrix(0.05,0,0,0.05,0,0)" xlink:href="#al"/><use transform="matrix(0.05,0,0,0.05,10,0)" xlink:href="#am"/><use transform="matrix(0.05,0,0,0.05,24.950000000000003,0)" xlink:href="#an"/><use transform="matrix(0.05,0,0,0.05,34.95,0)" xlink:href="#ao"/><use transform="matrix(0.05,0,0,0.05,40.900000000000006,0)" xlink:href="#al"/><use transform="matrix(0.05,0,0,0.05,50.900000000000006,0)" xlink:href="#ap"/><use transform="matrix(0.05,0,0,0.05,59.900000000000006,0)" xlink:href="#aq"/></g><path d="M33 0v-248h34V0H33" id="ar"/><path d="M190 0L58-211 59 0H30v-248h39L202-35l-2-213h31V0h-41" id="as"/><path d="M127-220V0H93v-220H8v-28h204v28h-85" id="at"/><path d="M30 0v-248h187v28H63v79h144v27H63v87h162V0H30" id="au"/><path d="M143 4C61 4 22-44 18-125c-5-107 100-154 193-111 17 8 29 25 37 43l-32 9c-13-25-37-40-76-40-61 0-88 39-88 99 0 61 29 100 91 101 35 0 62-11 79-27v-45h-74v-28h105v86C228-13 192 4 143 4" id="av"/><path d="M233-177c-1 41-23 64-60 70L243 0h-38l-65-103H63V0H30v-248c88 3 205-21 203 71zM63-129c60-2 137 13 137-47 0-61-80-42-137-45v92" id="aw"/><g id="h"><use transform="matrix(0.05,0,0,0.05,0,0)" xlink:href="#ar"/><use transform="matrix(0.05,0,0,0.05,5,0)" xlink:href="#as"/><use transform="matrix(0.05,0,0,0.05,17.950000000000003,0)" xlink:href="#at"/><use transform="matrix(0.05,0,0,0.05,28.900000000000006,0)" xlink:href="#au"/><use transform="matrix(0.05,0,0,0.05,40.900000000000006,0)" xlink:href="#av"/><use transform="matrix(0.05,0,0,0.05,54.900000000000006,0)" xlink:href="#au"/><use transform="matrix(0.05,0,0,0.05,66.9,0)" xlink:href="#aw"/></g><path fill="#333" d="M6 0l50-261h32L37 0H6" id="ax"/><path fill="#333" d="M248-111c6-24 9-61-24-58-72 9-57 108-77 169h-31l26-142c3-37-50-30-64-10C52-115 50-51 37 0H6l36-190h30c-1 10-6 24-4 32 13-43 101-52 105 5 13-22 29-41 61-41 90 0 28 129 23 194h-31" id="ay"/><g id="i"><use transform="matrix(0.05,0,0,0.05,0,0)" xlink:href="#Y"/><use transform="matrix(0.05,0,0,0.05,10,0)" xlink:href="#Z"/><use transform="matrix(0.05,0,0,0.05,20,0)" xlink:href="#Q"/><use transform="matrix(0.05,0,0,0.05,30,0)" xlink:href="#aa"/><use transform="matrix(0.05,0,0,0.05,40,0)" xlink:href="#ab"/><use transform="matrix(0.05,0,0,0.05,45,0)" xlink:href="#Q"/><use transform="matrix(0.05,0,0,0.05,55,0)" xlink:href="#ad"/><use transform="matrix(0.05,0,0,0.05,65,0)" xlink:href="#O"/><use transform="matrix(0.05,0,0,0.05,75,0)" xlink:href="#ax"/><use transform="matrix(0.05,0,0,0.05,78.95,0)" xlink:href="#ac"/><use transform="matrix(0.05,0,0,0.05,82.9,0)" xlink:href="#ay"/><use transform="matrix(0.05,0,0,0.05,97.85000000000001,0)" xlink:href="#ac"/><use transform="matrix(0.05,0,0,0.05,101.80000000000001,0)" xlink:href="#ab"/><use transform="matrix(0.05,0,0,0.05,106.80000000000001,0)" xlink:href="#O"/></g><g id="j"><use transform="matrix(0.05,0,0,0.05,0,0)" xlink:href="#R"/><use transform="matrix(0.05,0,0,0.05,5,0)" xlink:href="#T"/><use transform="matrix(0.05,0,0,0.05,17.950000000000003,0)" xlink:href="#U"/><use transform="matrix(0.05,0,0,0.05,28.900000000000006,0)" xlink:href="#V"/><use transform="matrix(0.05,0,0,0.05,40.900000000000006,0)" xlink:href="#W"/><use transform="matrix(0.05,0,0,0.05,54.900000000000006,0)" xlink:href="#V"/><use transform="matrix(0.05,0,0,0.05,66.9,0)" xlink:href="#X"/></g><path fill="#333" d="M76-167L44 0H12l33-167H18l4-23h27c3-47 25-81 82-69l-4 24c-35-8-44 15-46 45h37l-5 23H76" id="az"/><path fill="#333" d="M66-151c12-25 30-51 66-40l-6 26C45-176 58-65 38 0H6l36-190h30" id="aA"/><g id="k"><use transform="matrix(0.05,0,0,0.05,0,0)" xlink:href="#R"/><use transform="matrix(0.05,0,0,0.05,5,0)" xlink:href="#aa"/><use transform="matrix(0.05,0,0,0.05,15,0)" xlink:href="#ad"/><use transform="matrix(0.05,0,0,0.05,25,0)" xlink:href="#O"/><use transform="matrix(0.05,0,0,0.05,35,0)" xlink:href="#aa"/><use transform="matrix(0.05,0,0,0.05,45,0)" xlink:href="#ab"/><use transform="matrix(0.05,0,0,0.05,50,0)" xlink:href="#ac"/><use transform="matrix(0.05,0,0,0.05,53.95,0)" xlink:href="#az"/><use transform="matrix(0.05,0,0,0.05,58.95,0)" xlink:href="#ac"/><use transform="matrix(0.05,0,0,0.05,62.900000000000006,0)" xlink:href="#af"/><use transform="matrix(0.05,0,0,0.05,71.9,0)" xlink:href="#Q"/><use transform="matrix(0.05,0,0,0.05,81.9,0)" xlink:href="#ad"/><use transform="matrix(0.05,0,0,0.05,91.9,0)" xlink:href="#ae"/><use transform="matrix(0.05,0,0,0.05,101.9,0)" xlink:href="#aA"/></g><path fill="#333" d="M119 0H84L31-248h34l41 218 126-218h36" id="aB"/><path fill="#333" d="M125-24c46 0 70-25 89-51l25 16C214-24 183 4 123 4 8 4-5-146 60-208c32-50 158-61 191-5 5 7 9 14 11 22l-32 10c-9-28-33-43-69-43-74 0-108 51-108 125 0 46 24 75 72 75" id="aC"/><path fill="#333" d="M179 0l23-115H67L45 0H11l48-248h34L72-143h135l21-105h32L212 0h-33" id="aD"/><g id="l"><use transform="matrix(0.05,0,0,0.05,0,0)" xlink:href="#aB"/><use transform="matrix(0.05,0,0,0.05,11,0)" xlink:href="#ak"/><use transform="matrix(0.05,0,0,0.05,23,0)" xlink:href="#X"/><use transform="matrix(0.05,0,0,0.05,35.95,0)" xlink:href="#aC"/><use transform="matrix(0.05,0,0,0.05,48.900000000000006,0)" xlink:href="#aD"/><use transform="matrix(0.05,0,0,0.05,61.85,0)" xlink:href="#ak"/><use transform="matrix(0.05,0,0,0.05,73.85000000000001,0)" xlink:href="#X"/></g><path fill="#a9afb8" d="M24-248c93 1 206-16 204 79-1 75-69 88-152 82V0H24v-248zm52 121c47 0 100 7 100-41 0-47-54-39-100-39v80" id="aE"/><path fill="#a9afb8" d="M135-150c-39-12-60 13-60 57V0H25l-1-190h47c2 13-1 29 3 40 6-28 27-53 61-41v41" id="aF"/><path fill="#a9afb8" d="M110-194c64 0 96 36 96 99 0 64-35 99-97 99-61 0-95-36-95-99 0-62 34-99 96-99zm-1 164c35 0 45-28 45-65 0-40-10-65-43-65-34 0-45 26-45 65 0 36 10 65 43 65" id="aG"/><path fill="#a9afb8" d="M25-224v-37h50v37H25zM75 22c2 45-34 59-81 51V38c22 5 31-5 31-27v-201h50V22" id="aH"/><path fill="#a9afb8" d="M185-48c-13 30-37 53-82 52C43 2 14-33 14-96s30-98 90-98c62 0 83 45 84 108H66c0 31 8 55 39 56 18 0 30-7 34-22zm-45-69c5-46-57-63-70-21-2 6-4 13-4 21h74" id="aI"/><path fill="#a9afb8" d="M115-3C79 11 28 4 28-45v-112H4v-33h27l15-45h31v45h36v33H77v99c-1 23 16 31 38 25v30" id="aJ"/><g id="m"><use transform="matrix(0.0728395061728395,0,0,0.0728395061728395,0,0)" xlink:href="#aE"/><use transform="matrix(0.0728395061728395,0,0,0.0728395061728395,17.48148148148148,0)" xlink:href="#aF"/><use transform="matrix(0.0728395061728395,0,0,0.0728395061728395,27.679012345679013,0)" xlink:href="#aG"/><use transform="matrix(0.0728395061728395,0,0,0.0728395061728395,43.63086419753086,0)" xlink:href="#aH"/><use transform="matrix(0.0728395061728395,0,0,0.0728395061728395,50.91481481481481,0)" xlink:href="#aI"/><use transform="matrix(0.0728395061728395,0,0,0.0728395061728395,65.48271604938272,0)" xlink:href="#aJ"/><use transform="matrix(0.0728395061728395,0,0,0.0728395061728395,74.15061728395062,0)" xlink:href="#aG"/></g><path fill="#a9afb8" d="M24 0v-248h52V0H24" id="aK"/><path fill="#a9afb8" d="M135-194c87-1 58 113 63 194h-50c-7-57 23-157-34-157-59 0-34 97-39 157H25l-1-190h47c2 12-1 28 3 38 12-26 28-41 61-42" id="aL"/><path fill="#a9afb8" d="M195-6C206 82 75 100 31 46c-4-6-6-13-8-21l49-6c3 16 16 24 34 25 40 0 42-37 40-79-11 22-30 35-61 35-53 0-70-43-70-97 0-56 18-96 73-97 30 0 46 14 59 34l2-30h47zm-90-29c32 0 41-27 41-63 0-35-9-62-40-62-32 0-39 29-40 63 0 36 9 62 39 62" id="aM"/><path fill="#a9afb8" d="M133-34C117-15 103 5 69 4 32 3 11-16 11-54c-1-60 55-63 116-61 1-26-3-47-28-47-18 1-26 9-28 27l-52-2c7-38 36-58 82-57s74 22 75 68l1 82c-1 14 12 18 25 15v27c-30 8-71 5-69-32zm-48 3c29 0 43-24 42-57-32 0-66-3-65 30 0 17 8 27 23 27" id="aN"/><path fill="#a9afb8" d="M88-194c31-1 46 15 58 34l-1-101h50l1 261h-48c-2-10 0-23-3-31C134-8 116 4 84 4 32 4 16-41 15-95c0-56 19-97 73-99zm17 164c33 0 40-30 41-66 1-37-9-64-41-64s-38 30-39 65c0 43 13 65 39 65" id="aO"/><g id="n"><use transform="matrix(0.0728395061728395,0,0,0.0728395061728395,0,0)" xlink:href="#aK"/><use transform="matrix(0.0728395061728395,0,0,0.0728395061728395,7.28395061728395,0)" xlink:href="#aL"/><use transform="matrix(0.0728395061728395,0,0,0.0728395061728395,23.235802469135802,0)" xlink:href="#aJ"/><use transform="matrix(0.0728395061728395,0,0,0.0728395061728395,31.90370370370371,0)" xlink:href="#aI"/><use transform="matrix(0.0728395061728395,0,0,0.0728395061728395,46.471604938271604,0)" xlink:href="#aM"/><use transform="matrix(0.0728395061728395,0,0,0.0728395061728395,62.42345679012345,0)" xlink:href="#aF"/><use transform="matrix(0.0728395061728395,0,0,0.0728395061728395,72.62098765432098,0)" xlink:href="#aN"/><use transform="matrix(0.0728395061728395,0,0,0.0728395061728395,87.18888888888888,0)" xlink:href="#aO"/><use transform="matrix(0.0728395061728395,0,0,0.0728395061728395,103.14074074074074,0)" xlink:href="#aG"/><use transform="matrix(0.0728395061728395,0,0,0.0728395061728395,119.0925925925926,0)" xlink:href="#aF"/></g><path fill="#a9afb8" d="M169-182c-1-43-94-46-97-3 18 66 151 10 154 114 3 95-165 93-204 36-6-8-10-19-12-30l50-8c3 46 112 56 116 5-17-69-150-10-154-114-4-87 153-88 188-35 5 8 8 18 10 28" id="aP"/><path fill="#a9afb8" d="M114-157C55-157 80-60 75 0H25v-261h50l-1 109c12-26 28-41 61-42 86-1 58 113 63 194h-50c-7-57 23-157-34-157" id="aQ"/><path fill="#a9afb8" d="M135-194c53 0 70 44 70 98 0 56-19 98-73 100-31 1-45-17-59-34 3 33 2 69 2 105H25l-1-265h48c2 10 0 23 3 31 11-24 29-35 60-35zM114-30c33 0 39-31 40-66 0-38-9-64-40-64-56 0-55 130 0 130" id="aR"/><path fill="#a9afb8" d="M25-224v-37h50v37H25zM25 0v-190h50V0H25" id="aS"/><g id="o"><use transform="matrix(0.0728395061728395,0,0,0.0728395061728395,0,0)" xlink:href="#aP"/><use transform="matrix(0.0728395061728395,0,0,0.0728395061728395,17.48148148148148,0)" xlink:href="#aQ"/><use transform="matrix(0.0728395061728395,0,0,0.0728395061728395,33.43333333333333,0)" xlink:href="#aG"/><use transform="matrix(0.0728395061728395,0,0,0.0728395061728395,49.38518518518518,0)" xlink:href="#aR"/><use transform="matrix(0.0728395061728395,0,0,0.0728395061728395,65.33703703703704,0)" xlink:href="#aR"/><use transform="matrix(0.0728395061728395,0,0,0.0728395061728395,81.28888888888889,0)" xlink:href="#aS"/><use transform="matrix(0.0728395061728395,0,0,0.0728395061728395,88.57283950617284,0)" xlink:href="#aL"/><use transform="matrix(0.0728395061728395,0,0,0.0728395061728395,104.52469135802468,0)" xlink:href="#aM"/></g><path fill="#333" d="M62-99C39-31 123 0 170-40s38-139 58-208h34C234-144 253 4 115 4 49 4 18-43 31-112l26-136h34" id="aT"/><g id="p"><use transform="matrix(0.05,0,0,0.05,0,0)" xlink:href="#aT"/><use transform="matrix(0.05,0,0,0.05,12.950000000000001,0)" xlink:href="#P"/><use transform="matrix(0.05,0,0,0.05,21.950000000000003,0)" xlink:href="#O"/><use transform="matrix(0.05,0,0,0.05,31.950000000000003,0)" xlink:href="#aA"/></g><path d="M24-231v-30h32v30H24zM24 0v-190h32V0H24" id="aU"/><path d="M85-194c31 0 48 13 60 33l-1-100h32l1 261h-30c-2-10 0-23-3-31C134-8 116 4 85 4 32 4 16-35 15-94c0-66 23-100 70-100zm9 24c-40 0-46 34-46 75 0 40 6 74 45 74 42 0 51-32 51-76 0-42-9-74-50-73" id="aV"/><g id="q"><use transform="matrix(0.05,0,0,0.05,0,0)" xlink:href="#aU"/><use transform="matrix(0.05,0,0,0.05,3.95,0)" xlink:href="#aV"/></g><path d="M117-194c89-4 53 116 60 194h-32v-121c0-31-8-49-39-48C34-167 62-67 57 0H25l-1-190h30c1 10-1 24 2 32 11-22 29-35 61-36" id="aW"/><path d="M59-47c-2 24 18 29 38 22v24C64 9 27 4 27-40v-127H5v-23h24l9-43h21v43h35v23H59v120" id="aX"/><path d="M177-190C167-65 218 103 67 71c-23-6-38-20-44-43l32-5c15 47 100 32 89-28v-30C133-14 115 1 83 1 29 1 15-40 15-95c0-56 16-97 71-98 29-1 48 16 59 35 1-10 0-23 2-32h30zM94-22c36 0 50-32 50-73 0-42-14-75-50-75-39 0-46 34-46 75s6 73 46 73" id="aY"/><g id="r"><use transform="matrix(0.05,0,0,0.05,0,0)" xlink:href="#aU"/><use transform="matrix(0.05,0,0,0.05,3.95,0)" xlink:href="#aW"/><use transform="matrix(0.05,0,0,0.05,13.949999999999998,0)" xlink:href="#aX"/><use transform="matrix(0.05,0,0,0.05,18.95,0)" xlink:href="#al"/><use transform="matrix(0.05,0,0,0.05,28.950000000000003,0)" xlink:href="#aY"/><use transform="matrix(0.05,0,0,0.05,38.95,0)" xlink:href="#al"/><use transform="matrix(0.05,0,0,0.05,48.95,0)" xlink:href="#ao"/></g><g id="s"><use transform="matrix(0.05,0,0,0.05,0,0)" xlink:href="#aa"/><use transform="matrix(0.05,0,0,0.05,10,0)" xlink:href="#ae"/><use transform="matrix(0.05,0,0,0.05,20,0)" xlink:href="#ay"/><use transform="matrix(0.05,0,0,0.05,34.95,0)" xlink:href="#O"/></g><g id="t"><use transform="matrix(0.05,0,0,0.05,0,0)" xlink:href="#aB"/><use transform="matrix(0.05,0,0,0.05,11,0)" xlink:href="#ak"/><use transform="matrix(0.05,0,0,0.05,23,0)" xlink:href="#X"/><use transform="matrix(0.05,0,0,0.05,35.95,0)" xlink:href="#aC"/><use transform="matrix(0.05,0,0,0.05,48.900000000000006,0)" xlink:href="#aD"/><use transform="matrix(0.05,0,0,0.05,61.85,0)" xlink:href="#ak"/><use transform="matrix(0.05,0,0,0.05,73.85000000000001,0)" xlink:href="#X"/></g><g id="u"><use transform="matrix(0.05,0,0,0.05,0,0)" xlink:href="#O"/><use transform="matrix(0.05,0,0,0.05,10,0)" xlink:href="#ay"/><use transform="matrix(0.05,0,0,0.05,24.950000000000003,0)" xlink:href="#Q"/><use transform="matrix(0.05,0,0,0.05,34.95,0)" xlink:href="#ac"/><use transform="matrix(0.05,0,0,0.05,38.900000000000006,0)" xlink:href="#ax"/></g><path fill="#333" d="M188 0h-37l-8-164L71 0H34L18-190h31l8 164 75-164h34l8 164 74-164h31" id="aZ"/><g id="v"><use transform="matrix(0.05,0,0,0.05,0,0)" xlink:href="#ag"/><use transform="matrix(0.05,0,0,0.05,10,0)" xlink:href="#Q"/><use transform="matrix(0.05,0,0,0.05,20,0)" xlink:href="#P"/><use transform="matrix(0.05,0,0,0.05,29,0)" xlink:href="#P"/><use transform="matrix(0.05,0,0,0.05,38,0)" xlink:href="#aZ"/><use transform="matrix(0.05,0,0,0.05,50.95,0)" xlink:href="#ae"/><use transform="matrix(0.05,0,0,0.05,60.95,0)" xlink:href="#aA"/><use transform="matrix(0.05,0,0,0.05,66.9,0)" xlink:href="#ad"/></g><g id="w"><use transform="matrix(0.05,0,0,0.05,0,0)" xlink:href="#af"/><use transform="matrix(0.05,0,0,0.05,9,0)" xlink:href="#ag"/><use transform="matrix(0.05,0,0,0.05,19,0)" xlink:href="#az"/></g><g id="x"><use transform="matrix(0.05,0,0,0.05,0,0)" xlink:href="#O"/><use transform="matrix(0.05,0,0,0.05,10,0)" xlink:href="#ay"/><use transform="matrix(0.05,0,0,0.05,24.950000000000003,0)" xlink:href="#ag"/><use transform="matrix(0.05,0,0,0.05,34.95,0)" xlink:href="#aA"/><use transform="matrix(0.05,0,0,0.05,40.900000000000006,0)" xlink:href="#O"/><use transform="matrix(0.05,0,0,0.05,50.900000000000006,0)" xlink:href="#P"/><use transform="matrix(0.05,0,0,0.05,59.900000000000006,0)" xlink:href="#Q"/></g><path fill="#333" d="M103-194c29 0 47 14 56 36 2-11 5-23 8-32h30L160-5C157 61 82 97 21 62 9 55 4 45 1 30l28-7c7 42 83 31 92-3 4-16 9-38 13-55-13 20-29 36-62 36-40 0-60-25-60-64 0-71 23-131 91-131zm4 24c-53 0-58 54-61 104-2 27 10 44 36 44 49 0 65-50 67-102 1-29-15-46-42-46" id="ba"/><g id="y"><use transform="matrix(0.05,0,0,0.05,0,0)" xlink:href="#aB"/><use transform="matrix(0.05,0,0,0.05,11.35,0)" xlink:href="#Q"/><use transform="matrix(0.05,0,0,0.05,21.35,0)" xlink:href="#ba"/><use transform="matrix(0.05,0,0,0.05,31.35,0)" xlink:href="#Q"/></g><g id="z"><use transform="matrix(0.05,0,0,0.05,0,0)" xlink:href="#Y"/><use transform="matrix(0.05,0,0,0.05,10,0)" xlink:href="#aA"/><use transform="matrix(0.05,0,0,0.05,15.949999999999998,0)" xlink:href="#af"/><use transform="matrix(0.05,0,0,0.05,24.95,0)" xlink:href="#ae"/><use transform="matrix(0.05,0,0,0.05,34.95,0)" xlink:href="#ad"/><use transform="matrix(0.05,0,0,0.05,44.95,0)" xlink:href="#O"/></g><g id="B"><use transform="matrix(0.05,0,0,0.05,0,0)" xlink:href="#R"/><use transform="matrix(0.05,0,0,0.05,5,0)" xlink:href="#T"/><use transform="matrix(0.05,0,0,0.05,17.950000000000003,0)" xlink:href="#U"/><use transform="matrix(0.05,0,0,0.05,28.900000000000006,0)" xlink:href="#V"/><use transform="matrix(0.05,0,0,0.05,40.900000000000006,0)" xlink:href="#W"/><use transform="matrix(0.05,0,0,0.05,54.900000000000006,0)" xlink:href="#V"/><use transform="matrix(0.05,0,0,0.05,66.9,0)" xlink:href="#X"/></g><g id="C"><use transform="matrix(0.05,0,0,0.05,0,0)" xlink:href="#am"/><use transform="matrix(0.05,0,0,0.05,14.950000000000001,0)" xlink:href="#al"/><use transform="matrix(0.05,0,0,0.05,24.950000000000003,0)" xlink:href="#ap"/><use transform="matrix(0.05,0,0,0.05,33.95,0)" xlink:href="#aq"/></g><g id="D"><use transform="matrix(0.05,0,0,0.05,0,0)" xlink:href="#V"/><use transform="matrix(0.05,0,0,0.05,12,0)" xlink:href="#ay"/><use transform="matrix(0.05,0,0,0.05,26.950000000000003,0)" xlink:href="#ag"/><use transform="matrix(0.05,0,0,0.05,36.95,0)" xlink:href="#aA"/><use transform="matrix(0.05,0,0,0.05,42.900000000000006,0)" xlink:href="#O"/><use transform="matrix(0.05,0,0,0.05,52.900000000000006,0)" xlink:href="#P"/><use transform="matrix(0.05,0,0,0.05,61.900000000000006,0)" xlink:href="#Q"/></g><path d="M30-248c118-7 216 8 213 122C240-48 200 0 122 0H30v-248zM63-27c89 8 146-16 146-99s-60-101-146-95v194" id="bb"/><g id="E"><use transform="matrix(0.05,0,0,0.05,0,0)" xlink:href="#ar"/><use transform="matrix(0.05,0,0,0.05,5,0)" xlink:href="#bb"/></g><g id="F"><use transform="matrix(0.05,0,0,0.05,0,0)" xlink:href="#az"/><use transform="matrix(0.05,0,0,0.05,5,0)" xlink:href="#Q"/><use transform="matrix(0.05,0,0,0.05,15,0)" xlink:href="#aa"/><use transform="matrix(0.05,0,0,0.05,25,0)" xlink:href="#ab"/><use transform="matrix(0.05,0,0,0.05,30,0)" xlink:href="#Q"/><use transform="matrix(0.05,0,0,0.05,40,0)" xlink:href="#P"/><use transform="matrix(0.05,0,0,0.05,49,0)" xlink:href="#ac"/><use transform="matrix(0.05,0,0,0.05,52.95,0)" xlink:href="#Q"/></g><path fill="#333" d="M51-231l6-30h31l-6 30H51zM33 24C28 60 2 84-40 72c3-12-1-29 18-22C-5 49-1 37 2 19l41-209h32" id="bc"/><g id="G"><use transform="matrix(0.05,0,0,0.05,0,0)" xlink:href="#af"/><use transform="matrix(0.05,0,0,0.05,9,0)" xlink:href="#aa"/><use transform="matrix(0.05,0,0,0.05,19,0)" xlink:href="#ag"/><use transform="matrix(0.05,0,0,0.05,29,0)" xlink:href="#bc"/></g><g id="H"><use transform="matrix(0.05,0,0,0.05,0,0)" xlink:href="#O"/><use transform="matrix(0.05,0,0,0.05,10,0)" xlink:href="#aa"/><use transform="matrix(0.05,0,0,0.05,20,0)" xlink:href="#ad"/><use transform="matrix(0.05,0,0,0.05,30,0)" xlink:href="#O"/><use transform="matrix(0.05,0,0,0.05,40,0)" xlink:href="#aA"/><use transform="matrix(0.05,0,0,0.05,45.95,0)" xlink:href="#O"/><use transform="matrix(0.05,0,0,0.05,55.95,0)" xlink:href="#af"/><use transform="matrix(0.05,0,0,0.05,64.95,0)" xlink:href="#ae"/></g><path fill="#333" d="M89 0H52L20-190h33L74-25l89-165h34" id="bd"/><g id="I"><use transform="matrix(0.05,0,0,0.05,0,0)" xlink:href="#ac"/><use transform="matrix(0.05,0,0,0.05,3.95,0)" xlink:href="#aa"/><use transform="matrix(0.05,0,0,0.05,13.949999999999998,0)" xlink:href="#Q"/><use transform="matrix(0.05,0,0,0.05,23.95,0)" xlink:href="#ab"/><use transform="matrix(0.05,0,0,0.05,28.950000000000003,0)" xlink:href="#ac"/><use transform="matrix(0.05,0,0,0.05,32.9,0)" xlink:href="#bd"/><use transform="matrix(0.05,0,0,0.05,41.9,0)" xlink:href="#ae"/></g><path fill="#333" d="M24-61C-1-165 59-251 163-251c67 1 105 36 105 101 0 88-46 140-124 152 2 33 24 47 60 39l-3 23c-50 15-89-11-89-61-46-3-79-26-88-64zm210-73c6-55-18-91-72-90-77 1-111 51-111 125 0 49 24 75 73 75 72 0 103-45 110-110" id="be"/><g id="J"><use transform="matrix(0.05,0,0,0.05,0,0)" xlink:href="#be"/><use transform="matrix(0.05,0,0,0.05,14,0)" xlink:href="#X"/><use transform="matrix(0.05,0,0,0.05,26.950000000000003,0)" xlink:href="#aC"/><use transform="matrix(0.05,0,0,0.05,39.900000000000006,0)" xlink:href="#ae"/><use transform="matrix(0.05,0,0,0.05,49.900000000000006,0)" xlink:href="#ad"/><use transform="matrix(0.05,0,0,0.05,59.900000000000006,0)" xlink:href="#O"/></g><path d="M106-169C34-169 62-67 57 0H25v-261h32l-1 103c12-21 28-36 61-36 89 0 53 116 60 194h-32v-121c2-32-8-49-39-48" id="bf"/><path d="M100-194c62-1 85 37 85 99 1 63-27 99-86 99S16-35 15-95c0-66 28-99 85-99zM99-20c44 1 53-31 53-75 0-43-8-75-51-75s-53 32-53 75 10 74 51 75" id="bg"/><path d="M-5 72V49h209v23H-5" id="bh"/><g id="K"><use transform="matrix(0.05,0,0,0.05,0,0)" xlink:href="#bf"/><use transform="matrix(0.05,0,0,0.05,10,0)" xlink:href="#bg"/><use transform="matrix(0.05,0,0,0.05,20,0)" xlink:href="#ao"/><use transform="matrix(0.05,0,0,0.05,25.950000000000003,0)" xlink:href="#aq"/><use transform="matrix(0.05,0,0,0.05,35.95,0)" xlink:href="#ao"/><use transform="matrix(0.05,0,0,0.05,41.900000000000006,0)" xlink:href="#aU"/><use transform="matrix(0.05,0,0,0.05,45.85000000000001,0)" xlink:href="#bg"/><use transform="matrix(0.05,0,0,0.05,55.85,0)" xlink:href="#bh"/><use transform="matrix(0.05,0,0,0.05,65.85000000000001,0)" xlink:href="#aU"/><use transform="matrix(0.05,0,0,0.05,69.80000000000001,0)" xlink:href="#aW"/><use transform="matrix(0.05,0,0,0.05,79.80000000000001,0)" xlink:href="#aU"/></g><path d="M205 0l-28-72H64L36 0H1l101-248h38L239 0h-34zm-38-99l-47-123c-12 45-31 82-46 123h93" id="bi"/><path d="M240 0l2-218c-23 76-54 145-80 218h-23L58-218 59 0H30v-248h44l77 211c21-75 51-140 76-211h43V0h-30" id="bj"/><g id="L"><use transform="matrix(0.05,0,0,0.05,0,0)" xlink:href="#bb"/><use transform="matrix(0.05,0,0,0.05,12.950000000000001,0)" xlink:href="#bi"/><use transform="matrix(0.05,0,0,0.05,23.6,0)" xlink:href="#at"/><use transform="matrix(0.05,0,0,0.05,34.550000000000004,0)" xlink:href="#au"/><use transform="matrix(0.05,0,0,0.05,46.550000000000004,0)" xlink:href="#at"/><use transform="matrix(0.05,0,0,0.05,57.5,0)" xlink:href="#ar"/><use transform="matrix(0.05,0,0,0.05,62.5,0)" xlink:href="#bj"/><use transform="matrix(0.05,0,0,0.05,77.45,0)" xlink:href="#au"/></g><path d="M141 0L90-78 38 0H4l68-98-65-92h35l48 74 47-74h35l-64 92 68 98h-35" id="bk"/><g id="M"><use transform="matrix(0.05,0,0,0.05,0,0)" xlink:href="#al"/><use transform="matrix(0.05,0,0,0.05,10,0)" xlink:href="#bk"/><use transform="matrix(0.05,0,0,0.05,19,0)" xlink:href="#an"/><use transform="matrix(0.05,0,0,0.05,29,0)" xlink:href="#aU"/><use transform="matrix(0.05,0,0,0.05,32.95,0)" xlink:href="#ao"/><use transform="matrix(0.05,0,0,0.05,38.900000000000006,0)" xlink:href="#al"/><use transform="matrix(0.05,0,0,0.05,48.900000000000006,0)" xlink:href="#ap"/></g></defs></g></svg>